%TF.GenerationSoftware,KiCad,Pcbnew,(6.0.4)*%
%TF.CreationDate,2022-05-17T15:50:22-07:00*%
%TF.ProjectId,Atmega32a-pu(40 pin dip) programmer,41746d65-6761-4333-9261-2d7075283430,rev?*%
%TF.SameCoordinates,Original*%
%TF.FileFunction,Legend,Bot*%
%TF.FilePolarity,Positive*%
%FSLAX46Y46*%
G04 Gerber Fmt 4.6, Leading zero omitted, Abs format (unit mm)*
G04 Created by KiCad (PCBNEW (6.0.4)) date 2022-05-17 15:50:22*
%MOMM*%
%LPD*%
G01*
G04 APERTURE LIST*
%ADD10C,0.150000*%
G04 APERTURE END LIST*
D10*
X136452380Y-126071428D02*
X135452380Y-126071428D01*
X135928571Y-126071428D02*
X135928571Y-126642857D01*
X136452380Y-126642857D02*
X135452380Y-126642857D01*
X136452380Y-127547619D02*
X135928571Y-127547619D01*
X135833333Y-127500000D01*
X135785714Y-127404761D01*
X135785714Y-127214285D01*
X135833333Y-127119047D01*
X136404761Y-127547619D02*
X136452380Y-127452380D01*
X136452380Y-127214285D01*
X136404761Y-127119047D01*
X136309523Y-127071428D01*
X136214285Y-127071428D01*
X136119047Y-127119047D01*
X136071428Y-127214285D01*
X136071428Y-127452380D01*
X136023809Y-127547619D01*
X135785714Y-128023809D02*
X136785714Y-128023809D01*
X135833333Y-128023809D02*
X135785714Y-128119047D01*
X135785714Y-128309523D01*
X135833333Y-128404761D01*
X135880952Y-128452380D01*
X135976190Y-128500000D01*
X136261904Y-128500000D01*
X136357142Y-128452380D01*
X136404761Y-128404761D01*
X136452380Y-128309523D01*
X136452380Y-128119047D01*
X136404761Y-128023809D01*
X135785714Y-128928571D02*
X136785714Y-128928571D01*
X135833333Y-128928571D02*
X135785714Y-129023809D01*
X135785714Y-129214285D01*
X135833333Y-129309523D01*
X135880952Y-129357142D01*
X135976190Y-129404761D01*
X136261904Y-129404761D01*
X136357142Y-129357142D01*
X136404761Y-129309523D01*
X136452380Y-129214285D01*
X136452380Y-129023809D01*
X136404761Y-128928571D01*
X135785714Y-129738095D02*
X136452380Y-129976190D01*
X135785714Y-130214285D02*
X136452380Y-129976190D01*
X136690476Y-129880952D01*
X136738095Y-129833333D01*
X136785714Y-129738095D01*
X135928571Y-131690476D02*
X135976190Y-131833333D01*
X136023809Y-131880952D01*
X136119047Y-131928571D01*
X136261904Y-131928571D01*
X136357142Y-131880952D01*
X136404761Y-131833333D01*
X136452380Y-131738095D01*
X136452380Y-131357142D01*
X135452380Y-131357142D01*
X135452380Y-131690476D01*
X135500000Y-131785714D01*
X135547619Y-131833333D01*
X135642857Y-131880952D01*
X135738095Y-131880952D01*
X135833333Y-131833333D01*
X135880952Y-131785714D01*
X135928571Y-131690476D01*
X135928571Y-131357142D01*
X136452380Y-132357142D02*
X135785714Y-132357142D01*
X135452380Y-132357142D02*
X135500000Y-132309523D01*
X135547619Y-132357142D01*
X135500000Y-132404761D01*
X135452380Y-132357142D01*
X135547619Y-132357142D01*
X136452380Y-132833333D02*
X135785714Y-132833333D01*
X135976190Y-132833333D02*
X135880952Y-132880952D01*
X135833333Y-132928571D01*
X135785714Y-133023809D01*
X135785714Y-133119047D01*
X135785714Y-133309523D02*
X135785714Y-133690476D01*
X135452380Y-133452380D02*
X136309523Y-133452380D01*
X136404761Y-133500000D01*
X136452380Y-133595238D01*
X136452380Y-133690476D01*
X136452380Y-134023809D02*
X135452380Y-134023809D01*
X136452380Y-134452380D02*
X135928571Y-134452380D01*
X135833333Y-134404761D01*
X135785714Y-134309523D01*
X135785714Y-134166666D01*
X135833333Y-134071428D01*
X135880952Y-134023809D01*
X136452380Y-135357142D02*
X135452380Y-135357142D01*
X136404761Y-135357142D02*
X136452380Y-135261904D01*
X136452380Y-135071428D01*
X136404761Y-134976190D01*
X136357142Y-134928571D01*
X136261904Y-134880952D01*
X135976190Y-134880952D01*
X135880952Y-134928571D01*
X135833333Y-134976190D01*
X135785714Y-135071428D01*
X135785714Y-135261904D01*
X135833333Y-135357142D01*
X136452380Y-136261904D02*
X135928571Y-136261904D01*
X135833333Y-136214285D01*
X135785714Y-136119047D01*
X135785714Y-135928571D01*
X135833333Y-135833333D01*
X136404761Y-136261904D02*
X136452380Y-136166666D01*
X136452380Y-135928571D01*
X136404761Y-135833333D01*
X136309523Y-135785714D01*
X136214285Y-135785714D01*
X136119047Y-135833333D01*
X136071428Y-135928571D01*
X136071428Y-136166666D01*
X136023809Y-136261904D01*
X135785714Y-136642857D02*
X136452380Y-136880952D01*
X135785714Y-137119047D02*
X136452380Y-136880952D01*
X136690476Y-136785714D01*
X136738095Y-136738095D01*
X136785714Y-136642857D01*
X135452380Y-138547619D02*
X136166666Y-138547619D01*
X136309523Y-138500000D01*
X136404761Y-138404761D01*
X136452380Y-138261904D01*
X136452380Y-138166666D01*
X136452380Y-139452380D02*
X135928571Y-139452380D01*
X135833333Y-139404761D01*
X135785714Y-139309523D01*
X135785714Y-139119047D01*
X135833333Y-139023809D01*
X136404761Y-139452380D02*
X136452380Y-139357142D01*
X136452380Y-139119047D01*
X136404761Y-139023809D01*
X136309523Y-138976190D01*
X136214285Y-138976190D01*
X136119047Y-139023809D01*
X136071428Y-139119047D01*
X136071428Y-139357142D01*
X136023809Y-139452380D01*
X135785714Y-139833333D02*
X136452380Y-140071428D01*
X135785714Y-140309523D02*
X136452380Y-140071428D01*
X136690476Y-139976190D01*
X136738095Y-139928571D01*
X136785714Y-139833333D01*
X136452380Y-141119047D02*
X135452380Y-141119047D01*
X136404761Y-141119047D02*
X136452380Y-141023809D01*
X136452380Y-140833333D01*
X136404761Y-140738095D01*
X136357142Y-140690476D01*
X136261904Y-140642857D01*
X135976190Y-140642857D01*
X135880952Y-140690476D01*
X135833333Y-140738095D01*
X135785714Y-140833333D01*
X135785714Y-141023809D01*
X135833333Y-141119047D01*
X136452380Y-141738095D02*
X136404761Y-141642857D01*
X136357142Y-141595238D01*
X136261904Y-141547619D01*
X135976190Y-141547619D01*
X135880952Y-141595238D01*
X135833333Y-141642857D01*
X135785714Y-141738095D01*
X135785714Y-141880952D01*
X135833333Y-141976190D01*
X135880952Y-142023809D01*
X135976190Y-142071428D01*
X136261904Y-142071428D01*
X136357142Y-142023809D01*
X136404761Y-141976190D01*
X136452380Y-141880952D01*
X136452380Y-141738095D01*
X135785714Y-142500000D02*
X136452380Y-142500000D01*
X135880952Y-142500000D02*
X135833333Y-142547619D01*
X135785714Y-142642857D01*
X135785714Y-142785714D01*
X135833333Y-142880952D01*
X135928571Y-142928571D01*
X136452380Y-142928571D01*
%TO.C,G\u002A\u002A\u002A*%
G36*
X135532002Y-155151500D02*
G01*
X135525247Y-155159652D01*
X135356571Y-155239381D01*
X135093532Y-155251922D01*
X134787987Y-155208380D01*
X134491790Y-155119859D01*
X134256797Y-154997464D01*
X134134864Y-154852300D01*
X134135661Y-154821358D01*
X134150186Y-154805394D01*
X134471192Y-154805394D01*
X134511923Y-154924457D01*
X134534477Y-154944606D01*
X134726780Y-155029153D01*
X134970979Y-155049930D01*
X135212712Y-155013982D01*
X135397618Y-154928357D01*
X135471333Y-154800101D01*
X135468996Y-154773599D01*
X135370305Y-154655104D01*
X135149637Y-154603449D01*
X134839099Y-154627401D01*
X134587968Y-154702119D01*
X134471192Y-154805394D01*
X134150186Y-154805394D01*
X134234186Y-154713074D01*
X134447149Y-154598300D01*
X134559179Y-154547511D01*
X134722035Y-154435022D01*
X134741887Y-154326000D01*
X134714280Y-154256347D01*
X134653038Y-154036342D01*
X134654175Y-154031624D01*
X134814766Y-154031624D01*
X134820644Y-154122247D01*
X134951547Y-154246796D01*
X135003851Y-154287362D01*
X135258460Y-154409193D01*
X135458770Y-154375117D01*
X135590535Y-154192929D01*
X135639511Y-153870422D01*
X135623424Y-153778849D01*
X135535281Y-153740608D01*
X135329030Y-153761749D01*
X135298819Y-153767165D01*
X135055959Y-153843155D01*
X134884530Y-153947623D01*
X134814766Y-154031624D01*
X134654175Y-154031624D01*
X134687259Y-153894351D01*
X134825312Y-153775103D01*
X134826412Y-153774385D01*
X135006004Y-153697105D01*
X135259804Y-153633415D01*
X135540158Y-153588979D01*
X135799412Y-153569462D01*
X135989911Y-153580531D01*
X136064000Y-153627849D01*
X136054545Y-153666541D01*
X135952182Y-153758126D01*
X135945206Y-153761822D01*
X135878821Y-153870422D01*
X135874340Y-153877753D01*
X135796640Y-154112807D01*
X135726884Y-154423351D01*
X135720207Y-154459401D01*
X135653523Y-154772550D01*
X135646039Y-154800101D01*
X135586250Y-155020204D01*
X135532002Y-155151500D01*
G37*
G36*
X132931333Y-154077566D02*
G01*
X132887345Y-154239840D01*
X132766899Y-154470132D01*
X132607372Y-154689841D01*
X132576614Y-154720587D01*
X132369810Y-154810252D01*
X132141812Y-154784364D01*
X131969458Y-154647968D01*
X131934908Y-154544592D01*
X131946164Y-154330137D01*
X132021831Y-154125950D01*
X132140724Y-154010844D01*
X132166999Y-154008294D01*
X132207614Y-154091406D01*
X132193076Y-154321426D01*
X132183707Y-154404354D01*
X132179471Y-154590410D01*
X132206085Y-154664667D01*
X132330233Y-154633434D01*
X132526231Y-154480804D01*
X132675993Y-154244569D01*
X132711264Y-154168464D01*
X132812548Y-154023417D01*
X132896393Y-153986258D01*
X132931333Y-154077566D01*
G37*
G36*
X129468476Y-153742631D02*
G01*
X129661218Y-153773824D01*
X129931284Y-153819380D01*
X130149378Y-153856547D01*
X130469742Y-153910569D01*
X130708833Y-153950216D01*
X130909594Y-154007038D01*
X130981852Y-154081665D01*
X130901599Y-154136653D01*
X130674769Y-154139092D01*
X130605976Y-154131652D01*
X130433879Y-154136407D01*
X130331916Y-154221085D01*
X130238593Y-154426162D01*
X130227300Y-154454333D01*
X130115693Y-154671247D01*
X130029840Y-154742016D01*
X129987658Y-154665518D01*
X130007067Y-154440635D01*
X130020174Y-154358141D01*
X130005461Y-154137189D01*
X129875602Y-154022490D01*
X129608167Y-153988630D01*
X129450192Y-153962077D01*
X129375333Y-153860334D01*
X129378290Y-153802507D01*
X129402117Y-153733334D01*
X129468476Y-153742631D01*
G37*
G36*
X127230484Y-153099884D02*
G01*
X127483857Y-153139974D01*
X127646810Y-153173056D01*
X128019185Y-153246498D01*
X128380500Y-153315583D01*
X128594268Y-153364726D01*
X128791313Y-153434066D01*
X128867333Y-153496157D01*
X128864799Y-153508704D01*
X128760051Y-153545539D01*
X128499858Y-153528094D01*
X128081786Y-153456244D01*
X128025317Y-153489214D01*
X127922082Y-153642251D01*
X127812389Y-153880559D01*
X127731446Y-154064042D01*
X127619993Y-154251883D01*
X127533833Y-154325059D01*
X127483543Y-154319885D01*
X127435894Y-154263108D01*
X127461736Y-154118325D01*
X127563008Y-153854226D01*
X127591879Y-153784274D01*
X127651779Y-153605515D01*
X127637506Y-153504216D01*
X127546826Y-153420553D01*
X127431028Y-153359339D01*
X127205148Y-153310000D01*
X127196441Y-153309924D01*
X127027143Y-153272109D01*
X126947428Y-153190863D01*
X126995643Y-153103911D01*
X127045180Y-153092627D01*
X127230484Y-153099884D01*
G37*
G36*
X135596655Y-149491282D02*
G01*
X135596798Y-149492034D01*
X135592927Y-149725796D01*
X135527067Y-150066633D01*
X135411956Y-150469897D01*
X135260330Y-150890942D01*
X135084925Y-151285119D01*
X134873329Y-151650740D01*
X134448141Y-152152023D01*
X133939328Y-152509806D01*
X133890260Y-152536397D01*
X133743339Y-152658145D01*
X133737464Y-152786556D01*
X133793291Y-152929542D01*
X133875658Y-153150498D01*
X133955996Y-153371997D01*
X134260521Y-153216741D01*
X134308379Y-153192967D01*
X134542924Y-153108846D01*
X134670369Y-153141550D01*
X134706641Y-153293830D01*
X134692207Y-153371765D01*
X134685769Y-153406529D01*
X134520469Y-153664362D01*
X134189842Y-153953479D01*
X134128229Y-153996813D01*
X133941597Y-154102802D01*
X133823583Y-154132246D01*
X133755500Y-154071648D01*
X133634935Y-153887205D01*
X133498897Y-153625650D01*
X133370949Y-153333181D01*
X133274655Y-153056000D01*
X133197041Y-152784363D01*
X133457654Y-152784363D01*
X133485155Y-152943242D01*
X133550214Y-153177389D01*
X133635715Y-153433343D01*
X133724539Y-153657644D01*
X133799570Y-153796834D01*
X133829506Y-153832756D01*
X133915747Y-153890180D01*
X134029707Y-153856742D01*
X134222500Y-153723589D01*
X134235391Y-153713700D01*
X134391159Y-153542124D01*
X134455333Y-153371765D01*
X134454606Y-153326449D01*
X134434114Y-153257307D01*
X134360499Y-153291494D01*
X134200775Y-153437535D01*
X134109760Y-153521136D01*
X133976134Y-153605821D01*
X133874064Y-153576988D01*
X133776409Y-153418533D01*
X133656027Y-153114356D01*
X133595765Y-152962491D01*
X133513698Y-152796205D01*
X133464074Y-152749038D01*
X133457654Y-152784363D01*
X133197041Y-152784363D01*
X133189985Y-152759667D01*
X132509305Y-152767744D01*
X132213115Y-152773890D01*
X131944803Y-152793051D01*
X131799747Y-152832569D01*
X131751606Y-152901011D01*
X131774039Y-153006948D01*
X131802232Y-153059202D01*
X131896161Y-153092502D01*
X132087247Y-153042414D01*
X132282526Y-152996101D01*
X132445452Y-153029265D01*
X132478373Y-153159900D01*
X132368752Y-153373270D01*
X132191069Y-153577460D01*
X131937028Y-153785967D01*
X131682435Y-153923571D01*
X131458137Y-153978857D01*
X131294982Y-153940416D01*
X131223818Y-153796834D01*
X131203293Y-153507311D01*
X131167516Y-152950167D01*
X131127414Y-152784059D01*
X131005167Y-152716861D01*
X130673541Y-152673696D01*
X130213863Y-152473322D01*
X129777500Y-152116493D01*
X129578513Y-151890850D01*
X129431499Y-151683312D01*
X129375333Y-151546392D01*
X129360737Y-151414976D01*
X129271926Y-151325138D01*
X129093082Y-151377787D01*
X128954346Y-151429082D01*
X128885492Y-151374808D01*
X128862941Y-151336423D01*
X128734891Y-151278000D01*
X128655995Y-151245245D01*
X128652367Y-151238646D01*
X129544667Y-151238646D01*
X129580872Y-151493176D01*
X129757305Y-151846383D01*
X130054901Y-152143026D01*
X130445098Y-152357283D01*
X130899333Y-152463334D01*
X131365000Y-152505667D01*
X131378989Y-153013667D01*
X131385560Y-153241739D01*
X131394000Y-153507394D01*
X131400156Y-153669834D01*
X131411333Y-153738031D01*
X131503433Y-153809726D01*
X131687692Y-153740474D01*
X131964727Y-153530124D01*
X132055881Y-153446377D01*
X132198198Y-153280627D01*
X132231322Y-153182018D01*
X132154940Y-153171044D01*
X131968736Y-153268200D01*
X131841272Y-153338788D01*
X131686943Y-153351358D01*
X131602404Y-153220120D01*
X131576667Y-152935757D01*
X131576667Y-152571508D01*
X132275167Y-152576873D01*
X132870117Y-152547038D01*
X133554306Y-152400703D01*
X134122479Y-152132037D01*
X134575932Y-151740377D01*
X134915960Y-151225060D01*
X135110296Y-150799372D01*
X135275053Y-150319376D01*
X135361568Y-149848055D01*
X135386667Y-149317211D01*
X135383073Y-149000304D01*
X135358711Y-148777453D01*
X135293807Y-148663909D01*
X135168601Y-148627966D01*
X134963333Y-148637915D01*
X134788960Y-148638813D01*
X134502860Y-148623300D01*
X134148478Y-148595104D01*
X133765348Y-148558320D01*
X133393003Y-148517042D01*
X133070974Y-148475367D01*
X132838796Y-148437387D01*
X132736000Y-148407200D01*
X132697143Y-148342880D01*
X132757923Y-148282087D01*
X132939959Y-148270191D01*
X133217218Y-148312325D01*
X133326739Y-148333302D01*
X133642931Y-148377993D01*
X134037637Y-148420417D01*
X134450392Y-148453645D01*
X135302000Y-148509454D01*
X135302000Y-148242727D01*
X135288107Y-148068790D01*
X135210059Y-147991083D01*
X135015542Y-147976000D01*
X134943690Y-147977835D01*
X134763348Y-148023788D01*
X134683364Y-148150831D01*
X134644098Y-148242704D01*
X134534920Y-148300591D01*
X134313656Y-148298998D01*
X134101566Y-148247360D01*
X133989974Y-148155931D01*
X133999323Y-148058878D01*
X134147861Y-147990187D01*
X134237603Y-147987810D01*
X134248697Y-148052528D01*
X134245019Y-148110414D01*
X134360673Y-148145334D01*
X134429026Y-148141946D01*
X134560719Y-148083451D01*
X134541422Y-147959054D01*
X134370894Y-147777517D01*
X134234059Y-147651599D01*
X134175730Y-147583771D01*
X134566309Y-147583771D01*
X134612450Y-147662672D01*
X134750374Y-147782400D01*
X134902699Y-147841296D01*
X135005525Y-147806896D01*
X135018682Y-147773778D01*
X134966235Y-147722000D01*
X134879514Y-147659863D01*
X134788758Y-147496546D01*
X134777831Y-147468797D01*
X134696363Y-147340243D01*
X134610278Y-147363855D01*
X134573424Y-147420135D01*
X134566309Y-147583771D01*
X134175730Y-147583771D01*
X134132150Y-147533093D01*
X134112495Y-147474738D01*
X134194220Y-147505937D01*
X134225033Y-147509134D01*
X134358010Y-147441631D01*
X134532557Y-147293085D01*
X134588411Y-147234539D01*
X134713969Y-147043342D01*
X134707061Y-146870652D01*
X134559024Y-146690399D01*
X134261193Y-146476510D01*
X134107341Y-146386800D01*
X133811316Y-146280567D01*
X133455513Y-146254442D01*
X133226136Y-146265366D01*
X132886045Y-146340903D01*
X132636860Y-146508226D01*
X132433242Y-146791137D01*
X132354273Y-146947203D01*
X132304051Y-147107833D01*
X132281714Y-147309084D01*
X132282648Y-147593666D01*
X132302241Y-148004289D01*
X132305029Y-148055641D01*
X132318124Y-148624361D01*
X132287823Y-149112937D01*
X132209568Y-149599847D01*
X132191184Y-149689837D01*
X132101219Y-150096850D01*
X132027941Y-150351808D01*
X131964794Y-150467866D01*
X131905221Y-150458176D01*
X131842666Y-150335890D01*
X131730154Y-150169676D01*
X131485412Y-150018390D01*
X131239609Y-149955639D01*
X130959901Y-149926820D01*
X130729680Y-149942543D01*
X130605626Y-150003752D01*
X130609492Y-150090409D01*
X130729731Y-150172359D01*
X130782778Y-150184661D01*
X130925840Y-150217838D01*
X131147923Y-150208049D01*
X131252413Y-150190182D01*
X131363441Y-150199573D01*
X131362668Y-150279881D01*
X131358717Y-150369064D01*
X131445814Y-150512802D01*
X131536610Y-150599048D01*
X131575711Y-150686297D01*
X131490488Y-150690656D01*
X131301500Y-150599739D01*
X131222375Y-150555590D01*
X130854571Y-150436439D01*
X130475696Y-150427340D01*
X130120509Y-150515652D01*
X129823769Y-150688734D01*
X129620236Y-150933945D01*
X129544667Y-151238646D01*
X128652367Y-151238646D01*
X128575800Y-151099367D01*
X128555599Y-150894093D01*
X128557628Y-150886477D01*
X128721353Y-150886477D01*
X128833171Y-150981304D01*
X128983478Y-151073311D01*
X129171153Y-151084042D01*
X129354167Y-150939334D01*
X129470525Y-150806227D01*
X129646034Y-150605133D01*
X129680079Y-150571778D01*
X129882900Y-150444448D01*
X130139790Y-150346005D01*
X130267237Y-150310729D01*
X130409391Y-150254086D01*
X130428842Y-150184661D01*
X130353115Y-150066373D01*
X130336211Y-150042220D01*
X130218164Y-149842396D01*
X130066216Y-149554040D01*
X129908082Y-149233058D01*
X129771475Y-148935354D01*
X129684108Y-148716834D01*
X129594895Y-148594344D01*
X129438668Y-148592422D01*
X129250736Y-148735345D01*
X129218103Y-148773080D01*
X129150752Y-148894060D01*
X129146884Y-149051182D01*
X129201077Y-149306845D01*
X129234867Y-149420073D01*
X129364435Y-149714130D01*
X129517379Y-149937620D01*
X129631478Y-150080634D01*
X129674427Y-150238463D01*
X129569623Y-150318254D01*
X129323304Y-150308101D01*
X129198955Y-150289013D01*
X129070225Y-150302918D01*
X129036667Y-150390869D01*
X129069338Y-150479852D01*
X129206000Y-150473667D01*
X129309544Y-150458336D01*
X129375333Y-150512110D01*
X129332705Y-150588931D01*
X129158168Y-150689685D01*
X128833171Y-150807775D01*
X128745759Y-150838616D01*
X128721353Y-150886477D01*
X128557628Y-150886477D01*
X128609113Y-150693219D01*
X128634809Y-150642663D01*
X128653936Y-150537673D01*
X128552812Y-150506179D01*
X128511119Y-150503303D01*
X128447483Y-150489773D01*
X128549833Y-150457637D01*
X128627840Y-150419483D01*
X128698000Y-150301104D01*
X128699781Y-150277776D01*
X128792922Y-150141185D01*
X128984233Y-150062170D01*
X129213479Y-150067972D01*
X129330562Y-150094152D01*
X129366224Y-150071425D01*
X129271992Y-149953879D01*
X129217677Y-149873775D01*
X129111729Y-149637715D01*
X129025868Y-149353342D01*
X129006256Y-149265790D01*
X128967964Y-149022750D01*
X128986755Y-148856988D01*
X129066781Y-148702433D01*
X129150631Y-148599763D01*
X129360499Y-148458154D01*
X129579094Y-148417311D01*
X129750730Y-148494190D01*
X129752573Y-148496245D01*
X129838879Y-148634244D01*
X129960309Y-148877142D01*
X130091192Y-149173699D01*
X130324589Y-149736397D01*
X130929461Y-149778067D01*
X130930109Y-149778112D01*
X131259469Y-149807242D01*
X131541851Y-149843537D01*
X131716185Y-149879149D01*
X131784187Y-149896596D01*
X131869160Y-149874711D01*
X131929709Y-149755274D01*
X131991352Y-149503446D01*
X132021184Y-149312411D01*
X132054003Y-148954681D01*
X132076389Y-148526316D01*
X132084667Y-148083231D01*
X132085452Y-147943463D01*
X132115308Y-147345664D01*
X132197132Y-146888875D01*
X132342855Y-146553055D01*
X132564410Y-146318165D01*
X132873728Y-146164164D01*
X133282741Y-146071012D01*
X133426296Y-146054103D01*
X133728145Y-146070974D01*
X134043625Y-146184868D01*
X134098306Y-146210549D01*
X134295907Y-146309902D01*
X134456914Y-146412448D01*
X134618781Y-146548867D01*
X134818961Y-146749841D01*
X135094907Y-147046051D01*
X135522815Y-147510334D01*
X135528685Y-147773778D01*
X135542941Y-148413604D01*
X135550633Y-148695806D01*
X135564781Y-149056592D01*
X135579749Y-149317211D01*
X135580856Y-149336488D01*
X135596655Y-149491282D01*
G37*
G36*
X131274090Y-144589707D02*
G01*
X131284814Y-144778536D01*
X131267156Y-145112931D01*
X131226472Y-145555288D01*
X131170533Y-145923763D01*
X131104000Y-146137926D01*
X131025098Y-146205797D01*
X130964572Y-146154009D01*
X130915513Y-145995563D01*
X130889359Y-145787861D01*
X130470732Y-146048095D01*
X130292159Y-146163876D01*
X130079172Y-146316186D01*
X129958125Y-146421565D01*
X129857142Y-146491239D01*
X129765050Y-146464429D01*
X129763687Y-146343455D01*
X129770483Y-146331538D01*
X129880202Y-146223306D01*
X130086932Y-146059697D01*
X130352656Y-145871194D01*
X130413197Y-145829823D01*
X130660327Y-145649467D01*
X130833845Y-145504102D01*
X130899333Y-145422010D01*
X130848786Y-145366518D01*
X130678357Y-145261025D01*
X130428586Y-145133526D01*
X130142260Y-145005602D01*
X129862167Y-144898838D01*
X129858542Y-144897580D01*
X129744307Y-144815994D01*
X129714730Y-144720155D01*
X129790260Y-144674000D01*
X129867674Y-144694732D01*
X130063391Y-144771277D01*
X130319426Y-144884840D01*
X130504029Y-144968102D01*
X130781245Y-145070138D01*
X130952763Y-145082209D01*
X131045024Y-145002372D01*
X131084469Y-144828687D01*
X131085403Y-144819772D01*
X131134393Y-144625899D01*
X131212374Y-144526785D01*
X131232957Y-144524743D01*
X131274090Y-144589707D01*
G37*
G36*
X136899059Y-145614789D02*
G01*
X136891236Y-145869473D01*
X136874498Y-146000799D01*
X136828333Y-146071438D01*
X136717916Y-146106340D01*
X136517886Y-146079871D01*
X136194319Y-145991569D01*
X136021721Y-145933184D01*
X135662642Y-145740965D01*
X135454093Y-145491331D01*
X135386667Y-145174768D01*
X135390665Y-145071838D01*
X135391766Y-145068138D01*
X135568040Y-145068138D01*
X135588049Y-145321058D01*
X135738486Y-145554530D01*
X136007315Y-145729359D01*
X136239902Y-145822574D01*
X136461379Y-145895883D01*
X136585698Y-145897086D01*
X136647093Y-145823233D01*
X136679800Y-145671371D01*
X136700453Y-145455383D01*
X136707986Y-145172277D01*
X136701609Y-144891089D01*
X136682683Y-144667529D01*
X136652571Y-144557307D01*
X136560299Y-144537678D01*
X136357690Y-144563334D01*
X136110561Y-144626726D01*
X135878953Y-144711974D01*
X135722905Y-144803198D01*
X135690495Y-144834964D01*
X135568040Y-145068138D01*
X135391766Y-145068138D01*
X135458613Y-144843428D01*
X135643159Y-144642562D01*
X135824843Y-144517754D01*
X136237291Y-144365923D01*
X136666743Y-144349158D01*
X136758520Y-144370199D01*
X136821303Y-144425729D01*
X136858114Y-144548741D01*
X136878750Y-144773174D01*
X136893007Y-145132966D01*
X136894054Y-145172277D01*
X136896992Y-145282536D01*
X136899059Y-145614789D01*
G37*
G36*
X132578271Y-144672552D02*
G01*
X132847021Y-144763118D01*
X133053894Y-144871951D01*
X133158212Y-144995748D01*
X133216038Y-145237227D01*
X133169328Y-145495195D01*
X133020732Y-145703194D01*
X132751973Y-145826514D01*
X132405218Y-145853157D01*
X132047845Y-145776762D01*
X131925569Y-145711772D01*
X131839176Y-145615687D01*
X131852599Y-145547916D01*
X131978833Y-145550974D01*
X132279309Y-145627542D01*
X132530478Y-145659994D01*
X132703449Y-145626619D01*
X132841151Y-145526183D01*
X132960006Y-145373789D01*
X133016000Y-145226285D01*
X132969862Y-145107669D01*
X132800384Y-144964907D01*
X132556228Y-144861681D01*
X132290587Y-144827253D01*
X132186540Y-144824760D01*
X132032943Y-144780541D01*
X132002694Y-144704605D01*
X132118126Y-144623357D01*
X132130435Y-144619356D01*
X132316468Y-144618537D01*
X132578271Y-144672552D01*
G37*
G36*
X134420380Y-144503964D02*
G01*
X134447229Y-144695218D01*
X134455333Y-145033834D01*
X134455198Y-145077540D01*
X134446304Y-145382494D01*
X134426250Y-145611636D01*
X134398889Y-145718222D01*
X134390506Y-145726401D01*
X134305849Y-145770341D01*
X134253995Y-145695947D01*
X134230187Y-145486558D01*
X134229668Y-145125514D01*
X134243450Y-144825206D01*
X134283996Y-144550016D01*
X134349500Y-144441125D01*
X134370980Y-144438756D01*
X134420380Y-144503964D01*
G37*
G36*
X130955778Y-152152889D02*
G01*
X130969024Y-152178355D01*
X130899333Y-152209334D01*
X130854511Y-152203223D01*
X130842889Y-152152889D01*
X130855298Y-152142756D01*
X130955778Y-152152889D01*
G37*
G36*
X131104287Y-151707981D02*
G01*
X131111000Y-151786000D01*
X131093623Y-151811338D01*
X131021337Y-151870667D01*
X131012887Y-151868466D01*
X130984000Y-151786000D01*
X130987446Y-151762794D01*
X131073664Y-151701334D01*
X131104287Y-151707981D01*
G37*
G36*
X132786380Y-149368658D02*
G01*
X132821796Y-149487179D01*
X132840930Y-149732519D01*
X132846667Y-150125770D01*
X132846667Y-150934985D01*
X132592667Y-151066334D01*
X132465534Y-151137095D01*
X132353109Y-151227680D01*
X132395458Y-151262735D01*
X132592584Y-151235685D01*
X132704718Y-151214645D01*
X132803208Y-151226293D01*
X132795192Y-151313624D01*
X132782387Y-151385232D01*
X132837608Y-151447334D01*
X132869865Y-151441142D01*
X132931333Y-151346485D01*
X132959548Y-151318852D01*
X133045410Y-151401644D01*
X133145379Y-151498354D01*
X133223037Y-151454825D01*
X133232827Y-151356593D01*
X133151294Y-151202498D01*
X133095033Y-151113361D01*
X133048053Y-150936100D01*
X133023245Y-150655640D01*
X133016000Y-150239164D01*
X133017510Y-150074830D01*
X133033253Y-149723460D01*
X133063505Y-149478095D01*
X133105032Y-149370302D01*
X133120395Y-149367089D01*
X133159392Y-149458247D01*
X133178784Y-149709832D01*
X133178956Y-150125772D01*
X133176930Y-150443857D01*
X133191930Y-150771312D01*
X133231712Y-150992864D01*
X133300636Y-151145030D01*
X133308031Y-151156503D01*
X133394060Y-151387420D01*
X133327854Y-151553723D01*
X133114668Y-151641382D01*
X132944341Y-151666792D01*
X132787374Y-151688648D01*
X132732280Y-151680819D01*
X132618041Y-151582479D01*
X132531426Y-151502322D01*
X132345299Y-151434312D01*
X132246424Y-151412654D01*
X132121801Y-151322037D01*
X132153555Y-151190263D01*
X132341837Y-151034450D01*
X132356892Y-151025286D01*
X132480727Y-150942258D01*
X132556722Y-150851516D01*
X132597431Y-150712661D01*
X132615410Y-150485290D01*
X132623215Y-150129004D01*
X132623861Y-150092065D01*
X132642560Y-149690434D01*
X132681071Y-149446925D01*
X132740833Y-149352031D01*
X132786380Y-149368658D01*
G37*
G36*
X130984000Y-151447334D02*
G01*
X130977890Y-151492156D01*
X130927556Y-151503778D01*
X130917423Y-151491369D01*
X130927556Y-151390889D01*
X130953022Y-151377643D01*
X130984000Y-151447334D01*
G37*
G36*
X130899333Y-151024000D02*
G01*
X130893223Y-151068822D01*
X130842889Y-151080445D01*
X130832756Y-151068035D01*
X130842889Y-150967556D01*
X130868355Y-150954310D01*
X130899333Y-151024000D01*
G37*
G36*
X131661333Y-150341670D02*
G01*
X131658080Y-150366246D01*
X131576667Y-150431334D01*
X131557506Y-150430363D01*
X131492000Y-150393997D01*
X131495896Y-150380416D01*
X131576667Y-150304334D01*
X131609464Y-150291104D01*
X131661333Y-150341670D01*
G37*
G36*
X133569157Y-148038313D02*
G01*
X133320045Y-148129801D01*
X133058074Y-148122586D01*
X132819555Y-148033474D01*
X132640799Y-147879266D01*
X132558117Y-147676767D01*
X132568843Y-147626271D01*
X132718865Y-147626271D01*
X132765455Y-147768496D01*
X132811870Y-147813093D01*
X133008454Y-147924664D01*
X133238999Y-147996425D01*
X133418167Y-147998325D01*
X133511735Y-147934373D01*
X133497096Y-147848077D01*
X133356619Y-147806667D01*
X133203292Y-147748326D01*
X133050548Y-147595000D01*
X132934496Y-147446805D01*
X132845988Y-147383334D01*
X132830307Y-147384995D01*
X132746294Y-147470646D01*
X132718865Y-147626271D01*
X132568843Y-147626271D01*
X132607819Y-147442781D01*
X132608917Y-147440702D01*
X132786298Y-147266585D01*
X133042789Y-147195615D01*
X133327542Y-147222981D01*
X133589708Y-147343874D01*
X133778439Y-147553487D01*
X133818368Y-147643567D01*
X133810788Y-147778608D01*
X133691410Y-147934373D01*
X133685829Y-147941655D01*
X133569157Y-148038313D01*
G37*
G36*
X129580287Y-149675981D02*
G01*
X129587000Y-149754000D01*
X129569623Y-149779338D01*
X129497337Y-149838667D01*
X129488887Y-149836466D01*
X129460000Y-149754000D01*
X129463446Y-149730794D01*
X129549664Y-149669334D01*
X129580287Y-149675981D01*
G37*
G36*
X129375333Y-149415334D02*
G01*
X129369223Y-149460156D01*
X129318889Y-149471778D01*
X129308756Y-149459369D01*
X129318889Y-149358889D01*
X129344355Y-149345643D01*
X129375333Y-149415334D01*
G37*
%TD*%
M02*
