%TF.GenerationSoftware,KiCad,Pcbnew,(6.0.4)*%
%TF.CreationDate,2022-05-17T15:50:22-07:00*%
%TF.ProjectId,Atmega32a-pu(40 pin dip) programmer,41746d65-6761-4333-9261-2d7075283430,rev?*%
%TF.SameCoordinates,Original*%
%TF.FileFunction,Soldermask,Top*%
%TF.FilePolarity,Negative*%
%FSLAX46Y46*%
G04 Gerber Fmt 4.6, Leading zero omitted, Abs format (unit mm)*
G04 Created by KiCad (PCBNEW (6.0.4)) date 2022-05-17 15:50:22*
%MOMM*%
%LPD*%
G01*
G04 APERTURE LIST*
G04 Aperture macros list*
%AMRoundRect*
0 Rectangle with rounded corners*
0 $1 Rounding radius*
0 $2 $3 $4 $5 $6 $7 $8 $9 X,Y pos of 4 corners*
0 Add a 4 corners polygon primitive as box body*
4,1,4,$2,$3,$4,$5,$6,$7,$8,$9,$2,$3,0*
0 Add four circle primitives for the rounded corners*
1,1,$1+$1,$2,$3*
1,1,$1+$1,$4,$5*
1,1,$1+$1,$6,$7*
1,1,$1+$1,$8,$9*
0 Add four rect primitives between the rounded corners*
20,1,$1+$1,$2,$3,$4,$5,0*
20,1,$1+$1,$4,$5,$6,$7,0*
20,1,$1+$1,$6,$7,$8,$9,0*
20,1,$1+$1,$8,$9,$2,$3,0*%
G04 Aperture macros list end*
%ADD10R,2.800000X1.500000*%
%ADD11R,6.100000X6.300000*%
%ADD12RoundRect,0.250000X-0.475000X0.250000X-0.475000X-0.250000X0.475000X-0.250000X0.475000X0.250000X0*%
%ADD13R,1.450000X1.100000*%
%ADD14R,0.800000X0.800000*%
%ADD15RoundRect,0.250000X0.250000X0.475000X-0.250000X0.475000X-0.250000X-0.475000X0.250000X-0.475000X0*%
%ADD16R,2.600000X2.600000*%
%ADD17C,2.600000*%
%ADD18RoundRect,0.200000X-0.275000X0.200000X-0.275000X-0.200000X0.275000X-0.200000X0.275000X0.200000X0*%
%ADD19RoundRect,0.250000X0.475000X-0.250000X0.475000X0.250000X-0.475000X0.250000X-0.475000X-0.250000X0*%
%ADD20R,1.665000X1.665000*%
%ADD21C,1.665000*%
%ADD22C,3.840000*%
%ADD23RoundRect,0.250000X-0.600000X0.600000X-0.600000X-0.600000X0.600000X-0.600000X0.600000X0.600000X0*%
%ADD24C,1.700000*%
%ADD25RoundRect,0.218750X0.256250X-0.218750X0.256250X0.218750X-0.256250X0.218750X-0.256250X-0.218750X0*%
%ADD26R,1.400000X1.800000*%
%ADD27RoundRect,0.250000X-0.250000X-0.475000X0.250000X-0.475000X0.250000X0.475000X-0.250000X0.475000X0*%
G04 APERTURE END LIST*
D10*
%TO.C,U2*%
X120250000Y-77714000D03*
D11*
X126500000Y-80000000D03*
D10*
X120250000Y-82286000D03*
%TD*%
D12*
%TO.C,C6*%
X116500000Y-78800000D03*
X116500000Y-80700000D03*
%TD*%
D13*
%TO.C,D2*%
X115400000Y-76250000D03*
D14*
X113775000Y-76250000D03*
%TD*%
D12*
%TO.C,C3*%
X108000000Y-118550000D03*
X108000000Y-120450000D03*
%TD*%
D15*
%TO.C,C5*%
X135450000Y-116000000D03*
X133550000Y-116000000D03*
%TD*%
D16*
%TO.C,J2*%
X120750000Y-73000000D03*
D17*
X120750000Y-67000000D03*
X116050000Y-70000000D03*
%TD*%
D18*
%TO.C,R2*%
X111250000Y-82675000D03*
X111250000Y-84325000D03*
%TD*%
D19*
%TO.C,C2*%
X132500000Y-121000000D03*
X132500000Y-119100000D03*
%TD*%
D20*
%TO.C,U1*%
X128120000Y-143880000D03*
D21*
X128120000Y-141340000D03*
X128120000Y-138800000D03*
X128120000Y-136260000D03*
X128120000Y-133720000D03*
X128120000Y-131180000D03*
X128120000Y-128640000D03*
X128120000Y-126100000D03*
X128120000Y-123560000D03*
X128120000Y-121020000D03*
X128120000Y-118480000D03*
X128120000Y-115940000D03*
X128120000Y-113400000D03*
X128120000Y-110860000D03*
X128120000Y-108320000D03*
X128120000Y-105780000D03*
X128120000Y-103240000D03*
X128120000Y-100700000D03*
X128120000Y-98160000D03*
X128120000Y-95620000D03*
X112880000Y-95620000D03*
X112880000Y-98160000D03*
X112880000Y-100700000D03*
X112880000Y-103240000D03*
X112880000Y-105780000D03*
X112880000Y-108320000D03*
X112880000Y-110860000D03*
X112880000Y-113400000D03*
X112880000Y-115940000D03*
X112880000Y-118480000D03*
X112880000Y-121020000D03*
X112880000Y-123560000D03*
X112880000Y-126100000D03*
X112880000Y-128640000D03*
X112880000Y-131180000D03*
X112880000Y-133720000D03*
X112880000Y-136260000D03*
X112880000Y-138800000D03*
X112880000Y-141340000D03*
X112880000Y-143880000D03*
D22*
X106720000Y-143880000D03*
X134280000Y-95620000D03*
%TD*%
D23*
%TO.C,J1*%
X123545000Y-160000000D03*
D24*
X123545000Y-162540000D03*
X121005000Y-160000000D03*
X121005000Y-162540000D03*
X118465000Y-160000000D03*
X118465000Y-162540000D03*
%TD*%
D12*
%TO.C,C1*%
X105500000Y-118550000D03*
X105500000Y-120450000D03*
%TD*%
D18*
%TO.C,R1*%
X132500000Y-123175000D03*
X132500000Y-124825000D03*
%TD*%
D12*
%TO.C,C7*%
X116500000Y-82800000D03*
X116500000Y-84700000D03*
%TD*%
D25*
%TO.C,D1*%
X113250000Y-84287500D03*
X113250000Y-82712500D03*
%TD*%
D26*
%TO.C,Y1*%
X133300000Y-108800000D03*
X133300000Y-113200000D03*
X135700000Y-113200000D03*
X135700000Y-108800000D03*
%TD*%
D27*
%TO.C,C4*%
X133550000Y-106000000D03*
X135450000Y-106000000D03*
%TD*%
M02*
