M48
; DRILL file {KiCad (6.0.4)} date Tue May 17 15:50:20 2022
; FORMAT={-:-/ absolute / metric / decimal}
; #@! TF.CreationDate,2022-05-17T15:50:20-07:00
; #@! TF.GenerationSoftware,Kicad,Pcbnew,(6.0.4)
; #@! TF.FileFunction,MixedPlating,1,2
FMAT,2
METRIC
; #@! TA.AperFunction,Plated,PTH,ViaDrill
T1C0.300
; #@! TA.AperFunction,Plated,PTH,ViaDrill
T2C0.400
; #@! TA.AperFunction,Plated,PTH,ComponentDrill
T3C1.000
; #@! TA.AperFunction,Plated,PTH,ComponentDrill
T4C1.110
; #@! TA.AperFunction,Plated,PTH,ComponentDrill
T5C1.600
; #@! TA.AperFunction,Plated,PTH,ComponentDrill
T6C2.560
%
G90
G05
T1
X105.5Y-121.75
X108.0Y-122.0
X134.0Y-118.0
X134.0Y-120.0
T2
X110.25Y-82.75
X115.0Y-80.5
X117.75Y-85.25
X123.75Y-84.25
X124.0Y-76.25
X126.5Y-84.25
X126.75Y-76.25
X129.25Y-76.25
X129.25Y-84.25
X130.25Y-79.75
X132.25Y-114.0
X135.7Y-110.2
X136.0Y-104.75
T3
X118.465Y-160.0
X118.465Y-162.54
X121.005Y-160.0
X121.005Y-162.54
X123.545Y-160.0
X123.545Y-162.54
T4
X112.88Y-95.62
X112.88Y-98.16
X112.88Y-100.7
X112.88Y-103.24
X112.88Y-105.78
X112.88Y-108.32
X112.88Y-110.86
X112.88Y-113.4
X112.88Y-115.94
X112.88Y-118.48
X112.88Y-121.02
X112.88Y-123.56
X112.88Y-126.1
X112.88Y-128.64
X112.88Y-131.18
X112.88Y-133.72
X112.88Y-136.26
X112.88Y-138.8
X112.88Y-141.34
X112.88Y-143.88
X128.12Y-95.62
X128.12Y-98.16
X128.12Y-100.7
X128.12Y-103.24
X128.12Y-105.78
X128.12Y-108.32
X128.12Y-110.86
X128.12Y-113.4
X128.12Y-115.94
X128.12Y-118.48
X128.12Y-121.02
X128.12Y-123.56
X128.12Y-126.1
X128.12Y-128.64
X128.12Y-131.18
X128.12Y-133.72
X128.12Y-136.26
X128.12Y-138.8
X128.12Y-141.34
X128.12Y-143.88
T5
X116.05Y-70.0
X120.75Y-67.0
X120.75Y-73.0
T6
X106.72Y-143.88
X134.28Y-95.62
T0
M30
