%TF.GenerationSoftware,KiCad,Pcbnew,(6.0.4)*%
%TF.CreationDate,2022-05-17T15:50:22-07:00*%
%TF.ProjectId,Atmega32a-pu(40 pin dip) programmer,41746d65-6761-4333-9261-2d7075283430,rev?*%
%TF.SameCoordinates,Original*%
%TF.FileFunction,Copper,L1,Top*%
%TF.FilePolarity,Positive*%
%FSLAX46Y46*%
G04 Gerber Fmt 4.6, Leading zero omitted, Abs format (unit mm)*
G04 Created by KiCad (PCBNEW (6.0.4)) date 2022-05-17 15:50:22*
%MOMM*%
%LPD*%
G01*
G04 APERTURE LIST*
G04 Aperture macros list*
%AMRoundRect*
0 Rectangle with rounded corners*
0 $1 Rounding radius*
0 $2 $3 $4 $5 $6 $7 $8 $9 X,Y pos of 4 corners*
0 Add a 4 corners polygon primitive as box body*
4,1,4,$2,$3,$4,$5,$6,$7,$8,$9,$2,$3,0*
0 Add four circle primitives for the rounded corners*
1,1,$1+$1,$2,$3*
1,1,$1+$1,$4,$5*
1,1,$1+$1,$6,$7*
1,1,$1+$1,$8,$9*
0 Add four rect primitives between the rounded corners*
20,1,$1+$1,$2,$3,$4,$5,0*
20,1,$1+$1,$4,$5,$6,$7,0*
20,1,$1+$1,$6,$7,$8,$9,0*
20,1,$1+$1,$8,$9,$2,$3,0*%
G04 Aperture macros list end*
%TA.AperFunction,SMDPad,CuDef*%
%ADD10R,2.800000X1.500000*%
%TD*%
%TA.AperFunction,SMDPad,CuDef*%
%ADD11R,6.100000X6.300000*%
%TD*%
%TA.AperFunction,SMDPad,CuDef*%
%ADD12RoundRect,0.250000X-0.475000X0.250000X-0.475000X-0.250000X0.475000X-0.250000X0.475000X0.250000X0*%
%TD*%
%TA.AperFunction,SMDPad,CuDef*%
%ADD13R,1.450000X1.100000*%
%TD*%
%TA.AperFunction,SMDPad,CuDef*%
%ADD14R,0.800000X0.800000*%
%TD*%
%TA.AperFunction,SMDPad,CuDef*%
%ADD15RoundRect,0.250000X0.250000X0.475000X-0.250000X0.475000X-0.250000X-0.475000X0.250000X-0.475000X0*%
%TD*%
%TA.AperFunction,ComponentPad*%
%ADD16R,2.600000X2.600000*%
%TD*%
%TA.AperFunction,ComponentPad*%
%ADD17C,2.600000*%
%TD*%
%TA.AperFunction,SMDPad,CuDef*%
%ADD18RoundRect,0.200000X-0.275000X0.200000X-0.275000X-0.200000X0.275000X-0.200000X0.275000X0.200000X0*%
%TD*%
%TA.AperFunction,SMDPad,CuDef*%
%ADD19RoundRect,0.250000X0.475000X-0.250000X0.475000X0.250000X-0.475000X0.250000X-0.475000X-0.250000X0*%
%TD*%
%TA.AperFunction,ComponentPad*%
%ADD20R,1.665000X1.665000*%
%TD*%
%TA.AperFunction,ComponentPad*%
%ADD21C,1.665000*%
%TD*%
%TA.AperFunction,ComponentPad*%
%ADD22C,3.840000*%
%TD*%
%TA.AperFunction,ComponentPad*%
%ADD23RoundRect,0.250000X-0.600000X0.600000X-0.600000X-0.600000X0.600000X-0.600000X0.600000X0.600000X0*%
%TD*%
%TA.AperFunction,ComponentPad*%
%ADD24C,1.700000*%
%TD*%
%TA.AperFunction,SMDPad,CuDef*%
%ADD25RoundRect,0.218750X0.256250X-0.218750X0.256250X0.218750X-0.256250X0.218750X-0.256250X-0.218750X0*%
%TD*%
%TA.AperFunction,SMDPad,CuDef*%
%ADD26R,1.400000X1.800000*%
%TD*%
%TA.AperFunction,SMDPad,CuDef*%
%ADD27RoundRect,0.250000X-0.250000X-0.475000X0.250000X-0.475000X0.250000X0.475000X-0.250000X0.475000X0*%
%TD*%
%TA.AperFunction,ViaPad*%
%ADD28C,0.800000*%
%TD*%
%TA.AperFunction,ViaPad*%
%ADD29C,0.700000*%
%TD*%
%TA.AperFunction,Conductor*%
%ADD30C,0.500000*%
%TD*%
%TA.AperFunction,Conductor*%
%ADD31C,0.300000*%
%TD*%
G04 APERTURE END LIST*
D10*
%TO.P,U2,1,IN*%
%TO.N,VCC*%
X120250000Y-77714000D03*
D11*
%TO.P,U2,2,GND*%
%TO.N,GND*%
X126500000Y-80000000D03*
D10*
%TO.P,U2,3,OUT*%
%TO.N,+5V*%
X120250000Y-82286000D03*
%TD*%
D12*
%TO.P,C6,1*%
%TO.N,VCC*%
X116500000Y-78800000D03*
%TO.P,C6,2*%
%TO.N,GND*%
X116500000Y-80700000D03*
%TD*%
D13*
%TO.P,D2,1,K*%
%TO.N,VCC*%
X115400000Y-76250000D03*
D14*
%TO.P,D2,2,A*%
%TO.N,VDD*%
X113775000Y-76250000D03*
%TD*%
D12*
%TO.P,C3,1*%
%TO.N,+5V*%
X108000000Y-118550000D03*
%TO.P,C3,2*%
%TO.N,GND*%
X108000000Y-120450000D03*
%TD*%
D15*
%TO.P,C5,1*%
%TO.N,Net-(C5-Pad1)*%
X135450000Y-116000000D03*
%TO.P,C5,2*%
%TO.N,GND*%
X133550000Y-116000000D03*
%TD*%
D16*
%TO.P,J2,1*%
%TO.N,VDD*%
X120750000Y-73000000D03*
D17*
%TO.P,J2,2*%
%TO.N,GND*%
X120750000Y-67000000D03*
%TO.P,J2,3*%
X116050000Y-70000000D03*
%TD*%
D18*
%TO.P,R2,1*%
%TO.N,GND*%
X111250000Y-82675000D03*
%TO.P,R2,2*%
%TO.N,Net-(D1-Pad1)*%
X111250000Y-84325000D03*
%TD*%
D19*
%TO.P,C2,1*%
%TO.N,+5V*%
X132500000Y-121000000D03*
%TO.P,C2,2*%
%TO.N,GND*%
X132500000Y-119100000D03*
%TD*%
D20*
%TO.P,U1,1,PB0*%
%TO.N,unconnected-(U1-Pad1)*%
X128120000Y-143880000D03*
D21*
%TO.P,U1,2,PB1*%
%TO.N,unconnected-(U1-Pad2)*%
X128120000Y-141340000D03*
%TO.P,U1,3,PB2*%
%TO.N,unconnected-(U1-Pad3)*%
X128120000Y-138800000D03*
%TO.P,U1,4,PB3*%
%TO.N,unconnected-(U1-Pad4)*%
X128120000Y-136260000D03*
%TO.P,U1,5,PB4*%
%TO.N,unconnected-(U1-Pad5)*%
X128120000Y-133720000D03*
%TO.P,U1,6,PB5*%
%TO.N,/MOSI*%
X128120000Y-131180000D03*
%TO.P,U1,7,PB6*%
%TO.N,/MISO*%
X128120000Y-128640000D03*
%TO.P,U1,8,PB7*%
%TO.N,/SCK*%
X128120000Y-126100000D03*
%TO.P,U1,9,~{RESET}*%
%TO.N,/RST*%
X128120000Y-123560000D03*
%TO.P,U1,10,VCC*%
%TO.N,+5V*%
X128120000Y-121020000D03*
%TO.P,U1,11,GND*%
%TO.N,GND*%
X128120000Y-118480000D03*
%TO.P,U1,12,XTAL2*%
%TO.N,Net-(C5-Pad1)*%
X128120000Y-115940000D03*
%TO.P,U1,13,XTAL1*%
%TO.N,Net-(C4-Pad1)*%
X128120000Y-113400000D03*
%TO.P,U1,14,PD0*%
%TO.N,unconnected-(U1-Pad14)*%
X128120000Y-110860000D03*
%TO.P,U1,15,PD1*%
%TO.N,unconnected-(U1-Pad15)*%
X128120000Y-108320000D03*
%TO.P,U1,16,PD2*%
%TO.N,unconnected-(U1-Pad16)*%
X128120000Y-105780000D03*
%TO.P,U1,17,PD3*%
%TO.N,unconnected-(U1-Pad17)*%
X128120000Y-103240000D03*
%TO.P,U1,18,PD4*%
%TO.N,unconnected-(U1-Pad18)*%
X128120000Y-100700000D03*
%TO.P,U1,19,PD5*%
%TO.N,unconnected-(U1-Pad19)*%
X128120000Y-98160000D03*
%TO.P,U1,20,PD6*%
%TO.N,unconnected-(U1-Pad20)*%
X128120000Y-95620000D03*
%TO.P,U1,21,PD7*%
%TO.N,unconnected-(U1-Pad21)*%
X112880000Y-95620000D03*
%TO.P,U1,22,PC0*%
%TO.N,unconnected-(U1-Pad22)*%
X112880000Y-98160000D03*
%TO.P,U1,23,PC1*%
%TO.N,unconnected-(U1-Pad23)*%
X112880000Y-100700000D03*
%TO.P,U1,24,PC2*%
%TO.N,unconnected-(U1-Pad24)*%
X112880000Y-103240000D03*
%TO.P,U1,25,PC3*%
%TO.N,unconnected-(U1-Pad25)*%
X112880000Y-105780000D03*
%TO.P,U1,26,PC4*%
%TO.N,unconnected-(U1-Pad26)*%
X112880000Y-108320000D03*
%TO.P,U1,27,PC5*%
%TO.N,unconnected-(U1-Pad27)*%
X112880000Y-110860000D03*
%TO.P,U1,28,PC6*%
%TO.N,unconnected-(U1-Pad28)*%
X112880000Y-113400000D03*
%TO.P,U1,29,PC7*%
%TO.N,unconnected-(U1-Pad29)*%
X112880000Y-115940000D03*
%TO.P,U1,30,AVCC*%
%TO.N,+5V*%
X112880000Y-118480000D03*
%TO.P,U1,31,GND*%
%TO.N,GND*%
X112880000Y-121020000D03*
%TO.P,U1,32,AREF*%
%TO.N,unconnected-(U1-Pad32)*%
X112880000Y-123560000D03*
%TO.P,U1,33,PA7*%
%TO.N,unconnected-(U1-Pad33)*%
X112880000Y-126100000D03*
%TO.P,U1,34,PA6*%
%TO.N,unconnected-(U1-Pad34)*%
X112880000Y-128640000D03*
%TO.P,U1,35,PA5*%
%TO.N,unconnected-(U1-Pad35)*%
X112880000Y-131180000D03*
%TO.P,U1,36,PA4*%
%TO.N,unconnected-(U1-Pad36)*%
X112880000Y-133720000D03*
%TO.P,U1,37,PA3*%
%TO.N,unconnected-(U1-Pad37)*%
X112880000Y-136260000D03*
%TO.P,U1,38,PA2*%
%TO.N,unconnected-(U1-Pad38)*%
X112880000Y-138800000D03*
%TO.P,U1,39,PA1*%
%TO.N,unconnected-(U1-Pad39)*%
X112880000Y-141340000D03*
%TO.P,U1,40,PA0*%
%TO.N,unconnected-(U1-Pad40)*%
X112880000Y-143880000D03*
D22*
%TO.P,U1,MH1*%
%TO.N,N/C*%
X106720000Y-143880000D03*
%TO.P,U1,MH2*%
X134280000Y-95620000D03*
%TD*%
D23*
%TO.P,J1,1,MISO*%
%TO.N,/MISO*%
X123545000Y-160000000D03*
D24*
%TO.P,J1,2,VCC*%
%TO.N,+5V*%
X123545000Y-162540000D03*
%TO.P,J1,3,SCK*%
%TO.N,/SCK*%
X121005000Y-160000000D03*
%TO.P,J1,4,MOSI*%
%TO.N,/MOSI*%
X121005000Y-162540000D03*
%TO.P,J1,5,~{RST}*%
%TO.N,/RST*%
X118465000Y-160000000D03*
%TO.P,J1,6,GND*%
%TO.N,GND*%
X118465000Y-162540000D03*
%TD*%
D12*
%TO.P,C1,1*%
%TO.N,+5V*%
X105500000Y-118550000D03*
%TO.P,C1,2*%
%TO.N,GND*%
X105500000Y-120450000D03*
%TD*%
D18*
%TO.P,R1,1*%
%TO.N,+5V*%
X132500000Y-123175000D03*
%TO.P,R1,2*%
%TO.N,/RST*%
X132500000Y-124825000D03*
%TD*%
D12*
%TO.P,C7,1*%
%TO.N,+5V*%
X116500000Y-82800000D03*
%TO.P,C7,2*%
%TO.N,GND*%
X116500000Y-84700000D03*
%TD*%
D25*
%TO.P,D1,1,K*%
%TO.N,Net-(D1-Pad1)*%
X113250000Y-84287500D03*
%TO.P,D1,2,A*%
%TO.N,+5V*%
X113250000Y-82712500D03*
%TD*%
D26*
%TO.P,Y1,1,1*%
%TO.N,Net-(C4-Pad1)*%
X133300000Y-108800000D03*
%TO.P,Y1,2,2*%
%TO.N,GND*%
X133300000Y-113200000D03*
%TO.P,Y1,3,3*%
%TO.N,Net-(C5-Pad1)*%
X135700000Y-113200000D03*
%TO.P,Y1,4,4*%
%TO.N,GND*%
X135700000Y-108800000D03*
%TD*%
D27*
%TO.P,C4,1*%
%TO.N,Net-(C4-Pad1)*%
X133550000Y-106000000D03*
%TO.P,C4,2*%
%TO.N,GND*%
X135450000Y-106000000D03*
%TD*%
D28*
%TO.N,GND*%
X110250000Y-82750000D03*
D29*
X134000000Y-118000000D03*
D28*
X124000000Y-76250000D03*
X135700000Y-110200000D03*
X130250000Y-79750000D03*
D29*
X105500000Y-121750000D03*
D28*
X126750000Y-76250000D03*
X129250000Y-76250000D03*
X126500000Y-84250000D03*
X117750000Y-85250000D03*
X129250000Y-84250000D03*
X123750000Y-84250000D03*
X115000000Y-80500000D03*
X132250000Y-114000000D03*
D29*
X108000000Y-122000000D03*
D28*
X136000000Y-104750000D03*
D29*
X134000000Y-120000000D03*
%TD*%
D30*
%TO.N,+5V*%
X114500000Y-159500000D02*
X114500000Y-165500000D01*
X132480000Y-121020000D02*
X132500000Y-121000000D01*
X123000000Y-166250000D02*
X123545000Y-165705000D01*
X114500000Y-165500000D02*
X115250000Y-166250000D01*
X115000000Y-87000000D02*
X105500000Y-96500000D01*
X116500000Y-87000000D02*
X134000000Y-87000000D01*
X115250000Y-166250000D02*
X123000000Y-166250000D01*
X112810000Y-118550000D02*
X112880000Y-118480000D01*
X114950000Y-82800000D02*
X115000000Y-82850000D01*
X117165489Y-120915489D02*
X117270000Y-121020000D01*
X113337500Y-82800000D02*
X113250000Y-82712500D01*
X117165489Y-87165489D02*
X117000000Y-87000000D01*
X120250000Y-82286000D02*
X117014000Y-82286000D01*
X128120000Y-121020000D02*
X130480000Y-121020000D01*
X123545000Y-165705000D02*
X123545000Y-162540000D01*
X117165489Y-120915489D02*
X117165489Y-156834511D01*
X134049520Y-87000000D02*
X137000000Y-89950480D01*
X116500000Y-82800000D02*
X114950000Y-82800000D01*
X117165489Y-120915489D02*
X117165489Y-87165489D01*
X117014000Y-82286000D02*
X116500000Y-82800000D01*
X115000000Y-82850000D02*
X115000000Y-87000000D01*
X137000000Y-118675000D02*
X132500000Y-123175000D01*
X105500000Y-118550000D02*
X108000000Y-118550000D01*
X117165489Y-156834511D02*
X114500000Y-159500000D01*
X115000000Y-87000000D02*
X117000000Y-87000000D01*
X130480000Y-121020000D02*
X132480000Y-121020000D01*
X137000000Y-89950480D02*
X137000000Y-118675000D01*
X114950000Y-82800000D02*
X113337500Y-82800000D01*
X117270000Y-121020000D02*
X128120000Y-121020000D01*
X105500000Y-96500000D02*
X105500000Y-118550000D01*
X108000000Y-118550000D02*
X112810000Y-118550000D01*
%TO.N,GND*%
X133550000Y-115500000D02*
X133550000Y-116300000D01*
X117200000Y-84700000D02*
X117750000Y-85250000D01*
X135450000Y-105300000D02*
X136000000Y-104750000D01*
X110325000Y-82675000D02*
X110250000Y-82750000D01*
X133050000Y-113200000D02*
X132250000Y-114000000D01*
X116500000Y-80700000D02*
X115200000Y-80700000D01*
X108000000Y-120450000D02*
X108000000Y-122000000D01*
X133550000Y-117550000D02*
X134000000Y-118000000D01*
X133100000Y-119100000D02*
X134000000Y-120000000D01*
X132500000Y-119100000D02*
X133100000Y-119100000D01*
X135700000Y-108800000D02*
X135700000Y-110200000D01*
X133300000Y-113200000D02*
X133050000Y-113200000D01*
X135450000Y-106000000D02*
X135450000Y-105300000D01*
X111250000Y-82675000D02*
X110325000Y-82675000D01*
X133550000Y-116000000D02*
X133550000Y-117550000D01*
X116500000Y-84700000D02*
X117200000Y-84700000D01*
X115200000Y-80700000D02*
X115000000Y-80500000D01*
X105500000Y-120450000D02*
X105500000Y-121750000D01*
D31*
%TO.N,Net-(C4-Pad1)*%
X129350000Y-113400000D02*
X130750000Y-112000000D01*
X130750000Y-109500000D02*
X131450000Y-108800000D01*
X133300000Y-106250000D02*
X133550000Y-106000000D01*
X130750000Y-112000000D02*
X130750000Y-109500000D01*
X133300000Y-108800000D02*
X133300000Y-106250000D01*
X128120000Y-113400000D02*
X129350000Y-113400000D01*
X131450000Y-108800000D02*
X133300000Y-108800000D01*
%TO.N,Net-(C5-Pad1)*%
X135700000Y-112200000D02*
X135700000Y-113200000D01*
X129190000Y-115940000D02*
X131750000Y-113380000D01*
X134750000Y-111250000D02*
X135700000Y-112200000D01*
X135700000Y-115750000D02*
X135450000Y-116000000D01*
X128120000Y-115940000D02*
X129190000Y-115940000D01*
X135700000Y-113200000D02*
X135700000Y-115750000D01*
X131750000Y-111500000D02*
X132000000Y-111250000D01*
X131750000Y-113380000D02*
X131750000Y-111500000D01*
X132000000Y-111250000D02*
X134750000Y-111250000D01*
X135450000Y-113450000D02*
X135700000Y-113200000D01*
D30*
%TO.N,Net-(D1-Pad1)*%
X113250000Y-84287500D02*
X111287500Y-84287500D01*
X111287500Y-84287500D02*
X111250000Y-84325000D01*
D31*
%TO.N,/MISO*%
X120250000Y-130750000D02*
X120250000Y-156705000D01*
X128120000Y-128640000D02*
X122360000Y-128640000D01*
X120250000Y-156705000D02*
X123545000Y-160000000D01*
X122360000Y-128640000D02*
X120250000Y-130750000D01*
%TO.N,/SCK*%
X128120000Y-126100000D02*
X122400000Y-126100000D01*
X119500000Y-158495000D02*
X121005000Y-160000000D01*
X122400000Y-126100000D02*
X119500000Y-129000000D01*
X119500000Y-129000000D02*
X119500000Y-158495000D01*
%TO.N,/MOSI*%
X124750000Y-161000000D02*
X124750000Y-132750000D01*
X122204511Y-161340489D02*
X124409511Y-161340489D01*
X121005000Y-162540000D02*
X122204511Y-161340489D01*
X126320000Y-131180000D02*
X128120000Y-131180000D01*
X124409511Y-161340489D02*
X124750000Y-161000000D01*
X124750000Y-132750000D02*
X126320000Y-131180000D01*
%TO.N,/RST*%
X128250000Y-124750000D02*
X128250000Y-123690000D01*
X128250000Y-123690000D02*
X128120000Y-123560000D01*
X118465000Y-160000000D02*
X118465000Y-128535000D01*
X132425000Y-124750000D02*
X132500000Y-124825000D01*
X122250000Y-124750000D02*
X128250000Y-124750000D01*
X118465000Y-128535000D02*
X122250000Y-124750000D01*
X128250000Y-124750000D02*
X132425000Y-124750000D01*
%TD*%
%TA.AperFunction,Conductor*%
%TO.N,VCC*%
G36*
X117531743Y-75771162D02*
G01*
X118984477Y-76739652D01*
X118984479Y-76739653D01*
X119000000Y-76750000D01*
X121624000Y-76750000D01*
X121692121Y-76770002D01*
X121738614Y-76823658D01*
X121750000Y-76876000D01*
X121750000Y-78624000D01*
X121729998Y-78692121D01*
X121676342Y-78738614D01*
X121624000Y-78750000D01*
X119000000Y-78750000D01*
X118500000Y-79250000D01*
X118500000Y-79374000D01*
X118479998Y-79442121D01*
X118426342Y-79488614D01*
X118374000Y-79500000D01*
X115376000Y-79500000D01*
X115307879Y-79479998D01*
X115261386Y-79426342D01*
X115250000Y-79374000D01*
X115250000Y-77500000D01*
X114876000Y-77500000D01*
X114807879Y-77479998D01*
X114761386Y-77426342D01*
X114750000Y-77374000D01*
X114750000Y-75876000D01*
X114770002Y-75807879D01*
X114823658Y-75761386D01*
X114876000Y-75750000D01*
X117461851Y-75750000D01*
X117531743Y-75771162D01*
G37*
%TD.AperFunction*%
%TD*%
%TA.AperFunction,Conductor*%
%TO.N,GND*%
G36*
X130692121Y-75520002D02*
G01*
X130738614Y-75573658D01*
X130750000Y-75626000D01*
X130750000Y-84874000D01*
X130729998Y-84942121D01*
X130676342Y-84988614D01*
X130624000Y-85000000D01*
X123376000Y-85000000D01*
X123307879Y-84979998D01*
X123261386Y-84926342D01*
X123250000Y-84874000D01*
X123250000Y-75626000D01*
X123270002Y-75557879D01*
X123323658Y-75511386D01*
X123376000Y-75500000D01*
X130624000Y-75500000D01*
X130692121Y-75520002D01*
G37*
%TD.AperFunction*%
%TD*%
%TA.AperFunction,Conductor*%
%TO.N,VDD*%
G36*
X122192121Y-71270002D02*
G01*
X122238614Y-71323658D01*
X122250000Y-71376000D01*
X122250000Y-74874000D01*
X122229998Y-74942121D01*
X122176342Y-74988614D01*
X122124000Y-75000000D01*
X114000000Y-75000000D01*
X114000000Y-76874000D01*
X113979998Y-76942121D01*
X113926342Y-76988614D01*
X113874000Y-77000000D01*
X112876000Y-77000000D01*
X112807879Y-76979998D01*
X112761386Y-76926342D01*
X112750000Y-76874000D01*
X112750000Y-74802190D01*
X112770002Y-74734069D01*
X112786905Y-74713095D01*
X113213095Y-74286905D01*
X113275407Y-74252879D01*
X113302190Y-74250000D01*
X118000000Y-74250000D01*
X118500000Y-73750000D01*
X118500000Y-71552190D01*
X118520002Y-71484069D01*
X118536905Y-71463095D01*
X118713095Y-71286905D01*
X118775407Y-71252879D01*
X118802190Y-71250000D01*
X122124000Y-71250000D01*
X122192121Y-71270002D01*
G37*
%TD.AperFunction*%
%TD*%
M02*
